<svg xmlns="http://www.w3.org/2000/svg" version="1.1" xmlns:xlink="http://www.w3.org/1999/xlink" xmlns:svgjs="http://svgjs.dev/svgjs" width="100%" height="100%" viewBox="0 0 1000 600"><rect width="1000" height="600" x="0" y="0" fill="#358597"/><g><circle r="166.66666666666666" cx="393.1948038736979" cy="415.4170216581697" fill="#f4a896" transform="matrix(0.5518078307674359,0,0,0.5518078307674359,0,70.76964160926546)"/><path d="M457.43216296328455 381.3556044101394L436.98992525917595 381.3556044101394Q430.6000337384214 370.49820398716247 420.09461886531653 364.2978431471083Q409.5621281806831 358.1245581185828 396.6198902700023 358.1245581185828L396.6198902700023 358.1245581185828Q385.57295916632506 358.1245581185828 376.4484106811799 362.7815977015056Q367.29678638450605 367.43863728442835 360.7715158061085 375.2906226277284Q354.24624522771086 383.1426079710284 350.64516229440426 393.4855679749615Q347.0170035495691 403.80145216736605 347.0170035495691 415.227444632444L347.0170035495691 415.227444632444Q347.0170035495691 428.7382745852257 351.024223655805 439.16246202374475Q355.03144376204085 449.5866494622637 361.448411094324 456.490981402062Q367.8653784266071 463.39531334186034 376.7191687964661 468.0252771132545Q385.57295916632506 472.62816507312 396.6198902700023 472.62816507312L396.6198902700023 472.62816507312Q411.6469656683869 472.62816507312 422.8022000181786 465.34477177192105Q433.9303585564418 458.06137847072205 441.83649552279905 441.40975438062026L441.83649552279905 441.40975438062026L458.5964228590153 449.31589134697754Q454.9682641141801 459.5776239163248 446.30400442502145 469.1624611974566Q437.6397447358628 478.72022266705966 424.94118912893964 484.56859795724176Q412.21555771048793 490.41697324742387 396.8094209507027 490.41697324742387L396.8094209507027 490.41697324742387Q382.0531036676044 490.41697324742387 369.6794577990247 484.86643188405657Q357.305811930445 479.2888147091607 347.6397472147274 469.0000063282848Q337.9736824990098 458.73827375893757 332.88342993162905 444.63177595252614Q327.7931773642484 430.55235395764333 327.7931773642484 415.227444632444L327.7931773642484 415.227444632444Q327.7931773642484 399.8213078726588 332.88342993162905 386.093871427648Q337.9736824990098 372.39351079416593 347.17945841874086 362.26715728246177Q356.35815852694327 352.113727959229 369.0567141338664 346.26535266904693Q381.7552697407896 340.41697737886483 396.6198902700023 340.41697737886483L396.6198902700023 340.41697737886483Q409.85996210749795 340.41697737886483 419.47187520015825 344.18051518134314Q429.08378829281867 347.9440529838214 435.7985895519166 353.115532985788Q442.48631499948596 358.3140887992831 447.3599610746377 364.4061463932228L447.3599610746377 364.4061463932228L457.43216296328455 364.4061463932228L457.43216296328455 381.3556044101394Z " fill="#358597" transform="matrix(0.5518078307674359,0,0,0.5518078307674359,0,70.76964160926546)"/><path d="M643.1948037778099 358.5698364621286L643.1948037778099 341.9456340253599L747.4168151137424 341.9456340253599L747.4168151137424 383.1376233144961L727.7352880909012 383.1376233144961L727.7352880909012 358.5698364621286L675.8153652095646 358.5698364621286L675.8153652095646 405.3032265635211L725.824460224606 405.3032265635211L725.824460224606 421.4087757222954L675.8153652095646 421.4087757222954L675.8153652095646 470.9265150002895L690.3922520753026 470.9265150002895L690.3922520753026 487.4415272732699L643.1948037778099 487.4415272732699L643.1948037778099 470.9265150002895L657.0073594970298 470.9265150002895L657.0073594970298 358.5698364621286L643.1948037778099 358.5698364621286ZM807.0073470012072 487.4415272732699L807.0073470012072 478.21495843315853Q801.3294584842156 483.5106813768911 794.4777757064998 486.86827891338135Q787.6260929287839 490.2258764498716 778.8908798257199 490.2258764498716L778.8908798257199 490.2258764498716Q771.6024363928509 490.2258764498716 765.4877872207061 487.93288301031725Q759.4004355895083 485.61259202981586 754.9782339560821 481.6271510515429Q750.5833298636031 477.64171007326996 748.1265511783663 472.3732846704845Q745.6697724931296 467.104859267699 745.6697724931296 461.1539953412366L745.6697724931296 461.1539953412366Q745.6697724931296 454.8209658415152 747.5533028184777 449.9074084710417Q749.436833143826 445.02114864151525 752.5487528117925 441.41787323650135Q755.660672479759 437.81459783148745 759.8371962446615 435.3851166871978Q764.013720009564 432.92833800196104 768.5724093477255 431.45427079081895Q773.1310986858871 429.95290603872985 777.8808708106781 429.32506259694713Q782.6306429354692 428.6972191551644 786.943654405107 428.6972191551644L786.943654405107 428.6972191551644Q793.849932264717 428.6972191551644 798.5724068485611 429.1339798103176Q803.2675838914579 429.5707404654708 807.0892396240484 430.3350716119889L807.0892396240484 430.3350716119889L807.1984297878367 422.1731068688135Q807.1984297878367 416.90468146602797 805.6697674948006 413.0284306515433Q804.1138076608172 409.1248822961116 801.3294584842156 406.5862109880336Q798.5724068485611 404.0475396799556 794.6688584931293 402.7918527963902Q790.7926076786446 401.5634634537718 785.9882404719594 401.5634634537718L785.9882404719594 401.5634634537718Q781.484146215692 401.5634634537718 777.3622175326838 402.16400935460746Q773.2129913087283 402.7918527963902 769.6370134446615 403.80186181143193Q766.0337380396476 404.8118708264737 763.0037109945222 406.12215279193333Q759.9736839493969 407.40513721644584 757.8717732964722 408.85190688664085L757.8717732964722 408.85190688664085L752.002801992851 396.45882329666875Q755.5787798569178 394.16582985711443 759.7826011627674 392.20040690892506Q764.013720009564 390.23498396073563 768.6543019705668 388.84280937243483Q773.3221814725166 387.45063478413397 778.1538462201488 386.63170855572173Q783.0128085087283 385.8127823273095 787.7079855516251 385.8127823273095L787.7079855516251 385.8127823273095Q796.361306031848 385.8127823273095 803.2675838914579 387.8873954392872Q810.173861751068 389.9347110103178 814.9782289577531 394.24772247995566Q819.7552986234913 398.58803149054063 822.3485650134634 405.2486314816269Q824.9418314034356 411.9092314727132 824.9418314034356 421.2176929356658L824.9418314034356 421.2176929356658L824.8599387805943 470.9265150002895L835.8881453232126 470.9265150002895L835.8881453232126 487.4415272732699L807.0073470012072 487.4415272732699ZM782.8217257220988 475.2668240108745L782.8217257220988 475.2668240108745Q786.3704060452185 475.2668240108745 789.9190863683382 474.39330270056803Q793.467766691458 473.51978139026164 796.6342814413188 472.04571417911956Q799.8007961911794 470.54434942703045 802.5032527449398 468.5789264788411Q805.1784117577532 466.61350353065166 807.0073470012072 464.51159287772686L807.0073470012072 464.51159287772686L807.0892396240484 442.0457166782841L786.3704060452185 442.0457166782841Q781.1838732652742 442.0457166782841 776.9254568775306 443.19221339806126Q772.6397429488397 444.3387101178384 769.5278232808732 446.54981093455143Q766.4159036129066 448.7609117512646 764.6961585332409 452.03661666491354Q762.949115912628 455.2850240376155 762.949115912628 459.5161428844121L762.949115912628 459.5161428844121Q762.949115912628 463.44698878079095 764.3958855828231 466.367825662128Q765.842655253018 469.3159600844121 768.4632191839373 471.28138303260147Q771.1110806558036 473.2468059807909 774.7689511427116 474.25681499583266Q778.3995240886726 475.2668240108745 782.8217257220988 475.2668240108745ZM848.3631215360259 404.5115978760559L848.3631215360259 388.02388314402253L882.7307255883934 388.02388314402253L882.7307255883934 404.5115978760559L873.4222641254408 404.5115978760559L897.9900509778083 473.0557231941614L921.9845894702873 404.5115978760559L915.9245353800367 404.5115978760559L915.9245353800367 388.02388314402253L947.3986000920142 388.02388314402253L947.3986000920142 404.5115978760559L938.8544697755797 404.5115978760559L906.3430985076134 488.97018956630615L888.6815895148558 488.97018956630615L856.2248133287835 404.5115978760559L848.3631215360259 404.5115978760559ZM960.8289902379752 404.5115978760559L960.8289902379752 388.02388314402253L993.2857664240473 388.02388314402253L993.2857664240473 470.9265150002895L1008.2448188630444 470.9265150002895L1008.2448188630444 487.4415272732699L961.0200730246047 487.4415272732699L961.0200730246047 470.9265150002895L975.2420918580308 470.9265150002895L975.2420918580308 404.5115978760559L960.8289902379752 404.5115978760559ZM971.8844943215406 352.81005532229574L971.8844943215406 352.81005532229574Q971.8844943215406 350.2986815551648 972.8945033365824 348.06028319750465Q973.9045123516241 345.79458729889745 975.5696623493957 344.10213976017883Q977.2621098881143 342.4369897624072 979.5551033276686 341.4269807473654Q981.8480967672228 340.41697173232365 984.4413631571949 340.41697173232365L984.4413631571949 340.41697173232365Q986.952736924326 340.41697173232365 989.1911352819861 341.4269807473654Q991.4568311805933 342.4369897624072 993.1219811783649 344.10213976017883Q994.8144287170835 345.79458729889745 995.8244377321254 348.06028319750465Q996.8344467471671 350.2986815551648 996.8344467471671 352.81005532229574L996.8344467471671 352.81005532229574Q996.8344467471671 355.3760241713208 995.8244377321254 357.6963151518222Q994.8144287170835 359.98930859137647 993.1219811783649 361.7636487529364Q991.4568311805933 363.5379889144962 989.1911352819861 364.54799792953804Q986.952736924326 365.5580069445798 984.4413631571949 365.5580069445798L984.4413631571949 365.5580069445798Q981.8480967672228 365.5580069445798 979.5551033276686 364.54799792953804Q977.2621098881143 363.5379889144962 975.5696623493957 361.7636487529364Q973.9045123516241 359.98930859137647 972.8945033365824 357.6963151518222Q971.8844943215406 355.3760241713208 971.8844943215406 352.81005532229574ZM1114.4868482290606 414.50249786268535L1096.443173663044 414.50249786268535Q1092.403137602877 407.29594705265754 1086.233893348838 403.9383495161673Q1080.0373515538517 400.5807519796771 1071.8753868106764 400.5807519796771L1071.8753868106764 400.5807519796771Q1065.6515474747432 400.5807519796771 1060.1647417443812 403.1740183696492Q1054.705233554966 405.76728475962136 1050.6106024129049 410.57165196630655Q1046.5432688117908 415.3760191729918 1044.1956802903424 422.2277019507076Q1041.848091768894 429.07938472842346 1041.848091768894 437.5416224220167L1041.848091768894 437.5416224220167Q1041.848091768894 445.8946699518217 1044.1956802903424 452.60986502480216Q1046.5432688117908 459.3250600977826 1050.665197494799 464.07483222257366Q1054.7871261778075 468.82460434736475 1060.2193368262754 471.3632756554427Q1065.6515474747432 473.9019469635207 1071.8753868106764 473.9019469635207L1071.8753868106764 473.9019469635207Q1081.1019556507877 473.9019469635207 1087.8990433466095 469.45244778914747Q1094.7234285833783 464.9756510738271 1098.7361671025983 456.34962813455144L1098.7361671025983 456.34962813455144L1113.531434295913 463.63807156742047Q1110.637894955523 469.78001828051237 1106.4340736496733 474.6662781100388Q1102.2029548028768 479.57983548051226 1096.8799343181972 483.01932563984377Q1091.5569138335177 486.48611334012224 1085.169289251902 488.3423461245234Q1078.7816646702863 490.2258764498716 1071.684304024047 490.2258764498716L1071.684304024047 490.2258764498716Q1061.3112384641584 490.2258764498716 1052.5487278201474 486.3496256353869Q1043.7589196351892 482.4460772799552 1037.3712950535737 475.457906797504Q1030.983670471958 468.4424387741057 1027.434990148838 458.751811737894Q1023.8863098257185 449.0611847016824 1023.8863098257185 437.5416224220167L1023.8863098257185 437.5416224220167Q1023.8863098257185 426.02206014235105 1027.6260729354678 416.3314331061394Q1031.365836045217 406.64080606992775 1037.9172458725152 399.6799331284236Q1044.441358158866 392.7190601869195 1053.149273720983 388.7882142905407Q1061.884486824047 384.8573683941619 1071.8753868106764 384.8573683941619L1071.8753868106764 384.8573683941619Q1081.2930384374172 384.8573683941619 1089.6733835081693 388.1057757668638Q1098.0810261198685 391.3814806805128 1104.4140556195898 397.98748558970493L1104.4140556195898 397.98748558970493L1114.4868482290606 397.98748558970493L1114.4868482290606 414.50249786268535ZM1130.6196949287819 437.7327052086462L1130.6196949287819 437.7327052086462Q1130.701587551623 425.91286997856275 1134.3867555794782 416.2222429423511Q1138.0992211482805 406.53161590613945 1144.7052260574728 399.5707429646353Q1151.338528507612 392.63716756407825 1160.4559071839349 388.8701069133819Q1169.5732858602582 385.1303438036326 1180.5195997800352 385.1303438036326L1180.5195997800352 385.1303438036326Q1191.5478063226535 385.1303438036326 1200.7197800808708 388.8701069133819Q1209.8917538390879 392.63716756407825 1216.4158661254387 399.4888503417941Q1222.9399784117898 406.3405331195099 1226.570551357751 416.0311601557216Q1230.228421844659 425.72178719193323 1230.228421844659 437.5416224220167L1230.228421844659 437.5416224220167Q1230.228421844659 449.14307732452363 1226.570551357751 458.8882994426294Q1222.9399784117898 468.63352156073523 1216.4158661254387 475.6489895841335Q1209.8917538390879 482.6371600665847 1200.7197800808708 486.5407084220164Q1191.5478063226535 490.4169592365011 1180.5195997800352 490.4169592365011L1180.5195997800352 490.4169592365011Q1169.2730129098402 490.4169592365011 1160.155634233517 486.56800596296347Q1151.0382555571941 482.746350230373 1144.5141432708433 475.7854772888689Q1137.9900309844923 468.82460434736475 1134.3594580385313 459.13397731115305Q1130.701587551623 449.44335027494145 1130.6196949287819 437.7327052086462ZM1149.509593264158 437.7327052086462L1149.509593264158 437.7327052086462Q1149.509593264158 446.27683552508074 1151.9663719493947 453.1831133846907Q1154.3958530936843 460.0893912443007 1158.681567022375 464.94835353288005Q1162.9399834101189 469.78001828051237 1168.5632768452163 472.4278797523786Q1174.1865702803138 475.0484436832979 1180.5195997800352 475.0484436832979L1180.5195997800352 475.0484436832979Q1187.1256046892272 475.0484436832979 1192.8307907471658 472.48247483427275Q1198.563274346052 469.88920844430066 1202.7670956519014 465.0302461557213Q1206.998214498698 460.19858140808896 1209.4003981020405 453.26500600753195Q1211.802581705383 446.35872814792197 1211.802581705383 437.7327052086462L1211.802581705383 437.7327052086462Q1211.802581705383 428.6972191551644 1209.4003981020405 421.7090486727132Q1206.998214498698 414.6935806493149 1202.8216907337955 409.998403606418Q1198.645166968893 405.3032265635211 1192.88538582906 402.9010429601785Q1187.1256046892272 400.49885935683585 1180.5195997800352 400.49885935683585L1180.5195997800352 400.49885935683585Q1174.1865702803138 400.49885935683585 1168.5632768452163 402.9010429601785Q1162.9399834101189 405.3032265635211 1158.681567022375 409.998403606418Q1154.3958530936843 414.6935806493149 1151.9663719493947 421.7090486727132Q1149.509593264158 428.6972191551644 1149.509593264158 437.7327052086462ZM1314.9599889443798 487.4415272732699L1314.9599889443798 470.9265150002895L1328.963627450229 470.9265150002895L1328.963627450229 425.5307044053037Q1328.963627450229 414.1203322894263 1323.1765487694493 408.22406344485813Q1317.3621725477224 402.3277946002899 1306.5250487917338 402.3277946002899L1306.5250487917338 402.3277946002899Q1300.2739119148534 402.3277946002899 1293.940882415132 405.3032265635211Q1287.6078529154106 408.2786585267523 1281.9572619393662 412.67356261923135L1281.9572619393662 412.67356261923135L1281.9572619393662 470.9265150002895L1295.9609004452154 470.9265150002895L1295.9609004452154 487.4415272732699L1249.5004857532938 487.4415272732699L1249.5004857532938 470.9265150002895L1263.3403390134608 470.9265150002895L1263.3403390134608 404.5115978760559L1249.5004857532938 404.5115978760559L1249.5004857532938 388.02388314402253L1281.192930792848 388.02388314402253L1281.192930792848 399.73452821031776L1281.3840135794776 399.73452821031776Q1284.5505283293382 396.9501790337161 1288.126506193405 394.4388052665852Q1291.7297815984189 391.9547290404014 1295.6606274947976 390.12579379694733Q1299.6187709321237 388.29685855349334 1303.8771873198673 387.25955199750445Q1308.1629012485582 386.19494790056854 1312.858078291455 386.19494790056854L1312.858078291455 386.19494790056854Q1320.8289602480008 386.19494790056854 1327.2438823705636 388.40604871728164Q1333.6861020340734 390.6171495339947 1338.1901962903407 395.1212437902621Q1342.694290546608 399.62533804652946 1345.1510692318448 406.6954011518219Q1347.5805503761344 413.73816671616726 1347.5805503761344 423.3469011295377L1347.5805503761344 423.3469011295377L1347.5805503761344 470.9265150002895L1361.4204036363014 470.9265150002895L1361.4204036363014 487.4415272732699L1314.9599889443798 487.4415272732699ZM1380.228409348836 475.84007237076304L1380.228409348836 475.84007237076304Q1380.228409348836 473.3286986036321 1381.2384183638778 471.09030024597195Q1382.2484273789196 468.82460434736475 1383.9681724585855 467.1321568086461Q1385.687917538251 465.46700681087447 1387.9536134368586 464.4569977958327Q1390.1920117945187 463.44698878079095 1392.7852781844908 463.44698878079095L1392.7852781844908 463.44698878079095Q1395.2966519516217 463.44698878079095 1397.5350503092818 464.4569977958327Q1399.800746207889 465.46700681087447 1401.4658962056606 467.1321568086461Q1403.1583437443792 468.82460434736475 1404.168352759421 471.09030024597195Q1405.178361774463 473.3286986036321 1405.178361774463 475.84007237076304L1405.178361774463 475.84007237076304Q1405.178361774463 478.4333387607351 1404.168352759421 480.72633220028945Q1403.1583437443792 483.01932563984377 1401.4658962056606 484.7936658014036Q1399.800746207889 486.56800596296347 1397.5350503092818 487.5780149780053Q1395.2966519516217 488.5880239930471 1392.7852781844908 488.5880239930471L1392.7852781844908 488.5880239930471Q1390.1920117945187 488.5880239930471 1387.9536134368586 487.5780149780053Q1385.687917538251 486.56800596296347 1383.9681724585855 484.7936658014036Q1382.2484273789196 483.01932563984377 1381.2384183638778 480.72633220028945Q1380.228409348836 478.4333387607351 1380.228409348836 475.84007237076304ZM1423.6042019137385 404.5115978760559L1423.6042019137385 388.02388314402253L1456.0336805588636 388.02388314402253L1456.0336805588636 470.9265150002895L1471.020030538808 470.9265150002895L1471.020030538808 487.4415272732699L1423.795284700368 487.4415272732699L1423.795284700368 470.9265150002895L1437.9900059928468 470.9265150002895L1437.9900059928468 404.5115978760559L1423.6042019137385 404.5115978760559ZM1434.6324084563566 352.81005532229574L1434.6324084563566 352.81005532229574Q1434.6324084563566 350.2986815551648 1435.6424174713984 348.06028319750465Q1436.6524264864404 345.79458729889745 1438.317576484212 344.10213976017883Q1440.0100240229308 342.4369897624072 1442.3030174624848 341.4269807473654Q1444.6233084429864 340.41697173232365 1447.2165748329585 340.41697173232365L1447.2165748329585 340.41697173232365Q1449.7006510591423 340.41697173232365 1451.9663469577495 341.4269807473654Q1454.2047453154096 342.4369897624072 1455.8971928541282 344.10213976017883Q1457.5623428519 345.79458729889745 1458.5723518669415 348.06028319750465Q1459.5823608819835 350.2986815551648 1459.5823608819835 352.81005532229574L1459.5823608819835 352.81005532229574Q1459.5823608819835 355.3760241713208 1458.5723518669415 357.6963151518222Q1457.5623428519 359.98930859137647 1455.8971928541282 361.7636487529364Q1454.2047453154096 363.5379889144962 1451.9663469577495 364.54799792953804Q1449.7006510591423 365.5580069445798 1447.2165748329585 365.5580069445798L1447.2165748329585 365.5580069445798Q1444.6233084429864 365.5580069445798 1442.3030174624848 364.54799792953804Q1440.0100240229308 363.5379889144962 1438.317576484212 361.7636487529364Q1436.6524264864404 359.98930859137647 1435.6424174713984 357.6963151518222Q1434.6324084563566 355.3760241713208 1434.6324084563566 352.81005532229574ZM1486.060975600646 437.7327052086462L1486.060975600646 437.7327052086462Q1486.1701657644344 425.91286997856275 1489.8553337922895 416.2222429423511Q1493.567799361092 406.53161590613945 1500.173804270284 399.5707429646353Q1506.8071067204232 392.63716756407825 1515.9244853967464 388.8701069133819Q1525.0418640730693 385.1303438036326 1535.9881779928464 385.1303438036326L1535.9881779928464 385.1303438036326Q1547.0163845354648 385.1303438036326 1556.188358293682 388.8701069133819Q1565.333034510952 392.63716756407825 1571.8571467973031 399.4888503417941Q1578.408556624601 406.3405331195099 1582.039129570562 416.0311601557216Q1585.6970000574702 425.72178719193323 1585.6970000574702 437.5416224220167L1585.6970000574702 437.5416224220167Q1585.6970000574702 449.14307732452363 1582.039129570562 458.8882994426294Q1578.408556624601 468.63352156073523 1571.8571467973031 475.6489895841335Q1565.333034510952 482.6371600665847 1556.188358293682 486.5407084220164Q1547.0163845354648 490.4169592365011 1535.9881779928464 490.4169592365011L1535.9881779928464 490.4169592365011Q1524.7415911226517 490.4169592365011 1515.6242124463283 486.56800596296347Q1506.5068337700054 482.746350230373 1499.9827214836546 475.7854772888689Q1493.4586091973035 468.82460434736475 1489.8280362513426 459.13397731115305Q1486.1701657644344 449.44335027494145 1486.060975600646 437.7327052086462ZM1504.9781714769692 437.7327052086462L1504.9781714769692 437.7327052086462Q1504.9781714769692 446.27683552508074 1507.434950162206 453.1831133846907Q1509.8644313064956 460.0893912443007 1514.1501452351863 464.94835353288005Q1518.40856162293 469.78001828051237 1524.0318550580275 472.4278797523786Q1529.655148493125 475.0484436832979 1535.9881779928464 475.0484436832979L1535.9881779928464 475.0484436832979Q1542.5941829020385 475.0484436832979 1548.2993689599773 472.48247483427275Q1554.0318525588632 469.88920844430066 1558.2356738647127 465.0302461557213Q1562.4667927115092 460.19858140808896 1564.8689763148518 453.26500600753195Q1567.2711599181944 446.35872814792197 1567.2711599181944 437.7327052086462L1567.2711599181944 437.7327052086462Q1567.2711599181944 428.6972191551644 1564.8689763148518 421.7090486727132Q1562.4667927115092 414.6935806493149 1558.2902689466068 409.998403606418Q1554.1137451817044 405.3032265635211 1548.3539640418717 402.9010429601785Q1542.5941829020385 400.49885935683585 1535.9881779928464 400.49885935683585L1535.9881779928464 400.49885935683585Q1529.655148493125 400.49885935683585 1524.0318550580275 402.9010429601785Q1518.40856162293 405.3032265635211 1514.1501452351863 409.998403606418Q1509.8644313064956 414.6935806493149 1507.434950162206 421.7090486727132Q1504.9781714769692 428.6972191551644 1504.9781714769692 437.7327052086462Z " fill="#f4a896" transform="matrix(0.5518078307674359,0,0,0.5518078307674359,0,70.76964160926546)"/></g></svg>